<?xml version="1.0" encoding="UTF-8" standalone="no"?>
<svg
   xmlns:dc="http://purl.org/dc/elements/1.1/"
   xmlns:cc="http://creativecommons.org/ns#"
   xmlns:rdf="http://www.w3.org/1999/02/22-rdf-syntax-ns#"
   xmlns:svg="http://www.w3.org/2000/svg"
   xmlns="http://www.w3.org/2000/svg"
   xmlns:sodipodi="http://sodipodi.sourceforge.net/DTD/sodipodi-0.dtd"
   xmlns:inkscape="http://www.inkscape.org/namespaces/inkscape"
   xml:space="preserve"
   height="252.86"
   viewBox="0 0 245.3625 252.8625"
   width="245.36"
   version="1.1"
   id="svg2"
   inkscape:version="0.91 r13725"
   sodipodi:docname="logo_2016-mvinicius.svg"
   inkscape:export-filename="/arquivos/Cloud/Dropbox/MViniciusConsutoria/Logo/export/logo_2016-mvinicius.png"
   inkscape:export-xdpi="90"
   inkscape:export-ydpi="90"><metadata
     id="metadata50"><rdf:RDF><cc:Work
         rdf:about=""><dc:format>image/svg+xml</dc:format><dc:type
           rdf:resource="http://purl.org/dc/dcmitype/StillImage" /></cc:Work></rdf:RDF></metadata><defs
     id="defs48" /><sodipodi:namedview
     pagecolor="#ffffff"
     bordercolor="#666666"
     borderopacity="1"
     objecttolerance="10"
     gridtolerance="10"
     guidetolerance="10"
     inkscape:pageopacity="0"
     inkscape:pageshadow="2"
     inkscape:window-width="1855"
     inkscape:window-height="1056"
     id="namedview46"
     showgrid="false"
     inkscape:zoom="0.93332279"
     inkscape:cx="159.10898"
     inkscape:cy="126.43"
     inkscape:window-x="65"
     inkscape:window-y="24"
     inkscape:window-maximized="1"
     inkscape:current-layer="svg2" /><rect
     style="fill:#b4e550"
     id="rect6"
     x="31.82375"
     y="-58.065006"
     width="38.471252"
     height="35.907501" /><rect
     style="fill:#f2f2f2"
     id="rect8"
     x="70.294998"
     y="-58.065006"
     width="38.471252"
     height="35.907501" /><rect
     style="fill:#a6a6a6"
     id="rect10"
     x="108.7675"
     y="-58.065006"
     width="38.471252"
     height="35.907501" /><rect
     style="fill:#425766"
     id="rect12"
     x="147.2375"
     y="-58.065006"
     width="38.471252"
     height="35.907501" /><rect
     style="fill:#203240"
     id="rect14"
     x="185.71251"
     y="-58.065006"
     width="38.471252"
     height="35.907501" /><g
     style="fill:#b4e550"
     id="g16"
     transform="matrix(1.25,0,0,-1.25,122.68,224.95375)"><path
       style="fill:#b4e550"
       inkscape:connector-curvature="0"
       id="path18"
       d="m 0,0 c -50.658,19.893 -78.96,69.854 -79.717,140.76 -0.016,1.37 0.89,2.548 2.304,2.994 16.349,5.185 48.142,13.89 77.413,13.89 29.269,0 61.066,-8.705 77.411,-13.89 1.418,-0.446 2.32,-1.624 2.308,-2.994 C 78.958,69.854 50.654,19.89 0,0 Z" /></g><g
     style="fill:#203240"
     id="g20"
     transform="matrix(1.25,0,0,-1.25,122.68,217.12625)"><path
       style="fill:#203240;fill-rule:evenodd"
       inkscape:connector-curvature="0"
       id="path22"
       d="m 0,0 c -46.633,18.312 -72.686,64.305 -73.384,129.57 -0.014,1.26 0.819,2.345 2.121,2.757 15.05,4.773 44.317,12.786 71.263,12.786 26.945,0 56.215,-8.013 71.262,-12.786 1.305,-0.412 2.137,-1.497 2.124,-2.757 C 72.687,64.305 46.628,18.31 0,0" /></g><g
     style="fill:#f2f2f2"
     id="g24"
     transform="matrix(0.9311625,0,0,0.9311625,37.20375,153.98)"><path
       inkscape:connector-curvature="0"
       id="path26"
       d="m 43.405,-83.371 q 2.0187,0 3.2174,1.3879 1.1986,1.3563 1.1986,3.6905 l 0,12.081 -4.0375,0 0,-11.45 q 0,-2.6811 -1.8295,-2.6811 -0.97782,0 -1.7033,0.63085 -0.69394,0.59931 -1.451,1.8926 l 0,11.608 -4.0375,0 0,-11.45 q 0,-2.6811 -1.8295,-2.6811 -1.0094,0 -1.7348,0.63085 -0.69394,0.59931 -1.451,1.8926 l 0,11.608 -4.0375,0 0,-16.686 3.5012,0 0.31543,2.1764 q 1.8926,-2.6496 4.826,-2.6496 1.451,0 2.4919,0.72548 1.0725,0.72548 1.5771,2.0818 0.97782,-1.3879 2.1764,-2.0818 1.1986,-0.72548 2.8073,-0.72548 z" /><path
       inkscape:connector-curvature="0"
       id="path28"
       d="m 60.058,-66.212 -4.826,0 -5.52,-16.686 4.3844,0 3.5643,13.437 3.659,-13.437 4.1636,0 -5.4253,16.686 z" /><path
       inkscape:connector-curvature="0"
       id="path30"
       d="m 72.009,-66.212 -4.0375,0 0,-16.686 4.0375,0 0,16.686 z m -2.0503,-25.14 q 1.1355,0 1.8295,0.72548 0.72548,0.69394 0.72548,1.7348 0,1.04086 -0.72548,1.7348 -0.69394,0.69394 -1.8295,0.69394 -1.104,0 -1.8295,-0.69394 -0.69394,-0.69394 -0.69394,-1.7348 0,-1.04086 0.69394,-1.7348 0.72548,-0.72548 1.8295,-0.72548 z" /><path
       inkscape:connector-curvature="0"
       id="path32"
       d="m 85.738,-83.371 q 2.2395,0 3.4697,1.3563 1.2617,1.3248 1.2617,3.722 l 0,12.081 -4.0375,0 0,-11.45 q 0,-1.4825 -0.53623,-2.0818 -0.50468,-0.59931 -1.514,-0.59931 -1.0409,0 -1.8926,0.6624 -0.82011,0.63085 -1.6087,1.861 l 0,11.608 -4.0375,0 0,-16.686 3.5012,0 0.31543,2.208 q 2.0818,-2.6811 5.0784,-2.6811 z" /><path
       inkscape:connector-curvature="0"
       id="path34"
       d="m 99.178,-66.212 -4.0375,0 0,-16.686 4.0375,0 0,16.686 z m -2.0503,-25.14 q 1.1355,0 1.8295,0.72548 0.72548,0.69394 0.72548,1.7348 0,1.04086 -0.72548,1.7348 -0.69394,0.69394 -1.8295,0.69394 -1.104,0 -1.8295,-0.69394 -0.69394,-0.69394 -0.69394,-1.7348 0,-1.04086 0.69394,-1.7348 0.72548,-0.72548 1.8295,-0.72548 z" /><path
       inkscape:connector-curvature="0"
       id="path36"
       d="m 110.73,-83.371 q 1.6402,0 2.9335,0.47314 1.3248,0.47314 2.4919,1.4825 l -1.7979,2.4288 q -0.85165,-0.63085 -1.6402,-0.91474 -0.78857,-0.28388 -1.7348,-0.28388 -3.7536,0 -3.7536,5.7092 0,2.9019 0.97782,4.1952 0.97783,1.2617 2.7758,1.2617 0.8832,0 1.6087,-0.28388 0.75702,-0.28388 1.7664,-0.91474 l 1.7979,2.555 q -2.3657,1.9241 -5.3938,1.9241 -2.3972,0 -4.1636,-1.0409 -1.7664,-1.0725 -2.7127,-3.0281 -0.94628,-1.9556 -0.94628,-4.6052 0,-2.6496 0.94628,-4.6683 0.94628,-2.0503 2.7127,-3.1543 1.7664,-1.1355 4.1321,-1.1355 z" /><path
       inkscape:connector-curvature="0"
       id="path38"
       d="m 123.14,-66.212 -4.0375,0 0,-16.686 4.0375,0 0,16.686 z m -2.0503,-25.14 q 1.1355,0 1.8295,0.72548 0.72549,0.69394 0.72549,1.7348 0,1.04086 -0.72549,1.7348 -0.69393,0.69394 -1.8295,0.69394 -1.104,0 -1.8295,-0.69394 -0.69394,-0.69394 -0.69394,-1.7348 0,-1.04086 0.69394,-1.7348 0.72548,-0.72548 1.8295,-0.72548 z" /><path
       inkscape:connector-curvature="0"
       id="path40"
       d="m 141.32,-66.212 -3.5012,0 -0.2208,-2.3342 q -0.91473,1.4194 -2.1764,2.1134 -1.2302,0.69394 -2.9335,0.69394 -2.2395,0 -3.4697,-1.3563 -1.1986,-1.3879 -1.1986,-3.8167 l 0,-11.986 4.0375,0 0,11.482 q 0,1.4194 0.47314,2.0187 0.50469,0.59931 1.5771,0.59931 1.9241,0 3.3751,-2.3657 l 0,-11.734 4.0375,0 0,16.686 z" /><path
       inkscape:connector-curvature="0"
       id="path42"
       d="m 151.42,-83.371 q 3.3751,0 5.93,1.9872 l -1.5771,2.3657 q -2.1449,-1.3563 -4.1952,-1.3563 -1.1986,0 -1.861,0.47314 -0.6624,0.4416 -0.6624,1.1986 0,0.56777 0.28388,0.94628 0.28389,0.37851 1.0094,0.72548 0.75702,0.31543 2.208,0.72548 2.7127,0.72548 4.0059,1.9241 1.3248,1.1986 1.3248,3.3435 0,2.4919 -2.0187,3.9113 -2.0187,1.3879 -5.0153,1.3879 -2.0503,0 -3.7536,-0.63085 -1.6718,-0.63085 -2.9019,-1.7348 l 2.0187,-2.2711 q 2.1764,1.6402 4.5421,1.6402 1.3563,0 2.1449,-0.53623 0.82011,-0.53623 0.82011,-1.4825 0,-0.72548 -0.31543,-1.1355 -0.28388,-0.4416 -1.0724,-0.75702 -0.75703,-0.34697 -2.3972,-0.82011 -2.555,-0.69394 -3.7536,-1.9241 -1.1986,-1.2617 -1.1986,-3.1227 0,-1.3879 0.78857,-2.4919 0.82011,-1.104 2.2711,-1.7348 1.4825,-0.63085 3.3751,-0.63085 z" /></g><path
     style="fill:#b4e550;fill-rule:evenodd"
     inkscape:connector-curvature="0"
     id="path44"
     d="m 60.6125,111.3225 c 6.25475,18.8875 13.775,36.82125 20.60125,55.5025 2.070625,5.1975 7.557875,6.81838 13.04875,6.81838 l 5.79887,0 C 92.949,152.51963 84.551375,132.21962 76.933875,111.32338 l -16.3225,0 z m 28.91375,0 c 6.58225,17.5575 15.39375,40.61 19.75,52.30625 4.35563,11.69662 2.57238,10.01363 10.125,10.01363 l 3.27925,0 3.27925,0 c 7.55263,0 5.76937,1.68299 10.125,-10.01363 4.35562,-11.69662 13.1675,-34.74875 19.75,-52.30625 l -16.6675,0 c -5.49925,14.65 -10.99013,29.04375 -16.48625,43.695 -5.49625,-14.65125 -10.987,-29.045 -16.48625,-43.695 l -16.6675,0 z m 78.9,0 c -7.617,20.89625 -16.015,41.19625 -23.1275,62.32 l 5.79887,0 c 5.491,0 10.97813,-1.62087 13.04875,-6.81838 6.82675,-18.68124 14.34626,-36.61499 20.60125,-55.50249 l -16.3225,0 z" /></svg>