<?xml version="1.0" encoding="UTF-8" standalone="no"?>
<svg xmlns:rdf="http://www.w3.org/1999/02/22-rdf-syntax-ns#" xmlns="http://www.w3.org/2000/svg" xml:space="preserve" height="252.86" viewBox="0 0 245.3625 252.8625" width="245.36" version="1.1" xmlns:cc="http://creativecommons.org/ns#" xmlns:dc="http://purl.org/dc/elements/1.1/"><g transform="matrix(1.25 0 0 -1.25 0 252.86)"><rect transform="scale(1,-1)" height="28.726" width="30.777" y="-248.74" x="25.459" fill="#b4e550"/><rect transform="scale(1,-1)" height="28.726" width="30.777" y="-248.74" x="56.236" fill="#f2f2f2"/><rect transform="scale(1,-1)" height="28.726" width="30.777" y="-248.74" x="87.014" fill="#a6a6a6"/><rect transform="scale(1,-1)" height="28.726" width="30.777" y="-248.74" x="117.79" fill="#425766"/><rect transform="scale(1,-1)" height="28.726" width="30.777" y="-248.74" x="148.57" fill="#203240"/><g fill="#b4e550" transform="translate(98.144 22.325)"><path fill="#b4e550" d="m0 0c-50.658 19.893-78.96 69.854-79.717 140.76-0.016 1.37 0.89 2.548 2.304 2.994 16.349 5.185 48.142 13.89 77.413 13.89 29.269 0 61.066-8.705 77.411-13.89 1.418-0.446 2.32-1.624 2.308-2.994-0.761-70.906-29.065-120.87-79.719-140.76z"/></g><g fill="#203240" transform="translate(98.144 28.587)"><path d="m0 0c-46.633 18.312-72.686 64.305-73.384 129.57-0.014 1.26 0.819 2.345 2.121 2.757 15.05 4.773 44.317 12.786 71.263 12.786 26.945 0 56.215-8.013 71.262-12.786 1.305-0.412 2.137-1.497 2.124-2.757-0.699-65.265-26.758-111.26-73.386-129.57" fill-rule="evenodd" fill="#203240"/></g><path d="m43.965 128.38c5.4598-16.487 12.024-32.141 17.983-48.448 1.8075-4.5369 6.5973-5.9518 11.39-5.9518h5.0619c-6.2084 18.439-13.539 36.159-20.188 54.4h-14.248zm25.239 0c5.7457-15.326 13.438-35.449 17.24-45.659 3.8021-10.21 2.2454-8.741 8.8382-8.741h2.8625 2.8625c6.5928 0 5.0361-1.4691 8.8382 8.741s11.494 30.333 17.24 45.659h-14.55c-4.8004-12.788-9.5934-25.353-14.391-38.142-4.7977 12.789-9.5907 25.354-14.391 38.142h-14.55zm68.873 0c-6.65-18.24-13.98-35.959-20.19-54.398h5.0619c4.7931 0 9.583 1.4149 11.39 5.9518 5.9592 16.307 12.524 31.961 17.983 48.448h-14.248z" fill-rule="evenodd" fill="#b4e550"/></g></svg>
